<?xml version="1.0" encoding="UTF-8"?>
<!DOCTYPE svg PUBLIC "-//W3C//DTD SVG 1.1//EN" "http://www.w3.org/Graphics/SVG/1.1/DTD/svg11.dtd">
<svg xmlns="http://www.w3.org/2000/svg" version="1.1" width="995px" height="274px" style="shape-rendering:geometricPrecision; text-rendering:geometricPrecision; image-rendering:optimizeQuality; fill-rule:evenodd; clip-rule:evenodd" xmlns:xlink="http://www.w3.org/1999/xlink">
<g><path style="opacity:0.991" fill="#49b3fc" d="M 87.5,-0.5 C 119.833,-0.5 152.167,-0.5 184.5,-0.5C 234.48,8.64721 263.98,38.3139 273,88.5C 273.667,120.5 273.667,152.5 273,184.5C 267.791,220.361 249.291,246.861 217.5,264C 207.733,268.313 197.733,271.48 187.5,273.5C 153.167,273.5 118.833,273.5 84.5,273.5C 37.3812,263.381 9.04783,234.715 -0.5,187.5C -0.5,153.5 -0.5,119.5 -0.5,85.5C 6.43217,49.0516 26.7655,22.8849 60.5,7C 69.4021,3.69433 78.4021,1.19433 87.5,-0.5 Z"/></g>
<g><path style="opacity:1" fill="#000001" d="M 209.5,94.5 C 209.5,100.833 209.5,107.167 209.5,113.5C 161.833,113.5 114.167,113.5 66.5,113.5C 66.5,107.167 66.5,100.833 66.5,94.5C 90.0114,78.4841 113.845,62.8175 138,47.5C 161.813,63.3147 185.646,78.9813 209.5,94.5 Z"/></g>
<g><path style="opacity:0.939" fill="#000000" d="M 385.5,75.5 C 406.316,73.0506 424.316,78.884 439.5,93C 435.321,98.5124 430.488,103.346 425,107.5C 411.801,96.4956 396.968,93.6623 380.5,99C 361.925,109.326 354.425,125.159 358,146.5C 361.619,162.452 371.452,171.952 387.5,175C 400.023,177.244 411.19,174.411 421,166.5C 421.5,160.175 421.666,153.842 421.5,147.5C 411.833,147.5 402.167,147.5 392.5,147.5C 392.5,140.5 392.5,133.5 392.5,126.5C 409.167,126.5 425.833,126.5 442.5,126.5C 442.667,143.17 442.5,159.837 442,176.5C 429.603,190.746 413.937,197.413 395,196.5C 356.856,195.691 336.69,176.191 334.5,138C 335.388,103.644 352.388,82.8104 385.5,75.5 Z"/></g>
<g><path style="opacity:0.694" fill="#000000" d="M 994.5,86.5 C 994.5,88.8333 994.5,91.1667 994.5,93.5C 989.794,103.906 982.127,106.739 971.5,102C 964.668,95.513 963.835,88.3464 969,80.5C 973.861,76.7159 979.361,75.5493 985.5,77C 990.112,78.775 993.112,81.9417 994.5,86.5 Z M 974.5,81.5 C 983.148,77.6596 988.481,80.493 990.5,90C 989.617,98.6384 987.284,99.305 983.5,92C 986.202,89.7965 987.035,86.9632 986,83.5C 982.38,81.8166 978.546,81.1499 974.5,81.5 Z M 974.5,81.5 C 974.5,87.1667 974.5,92.8333 974.5,98.5C 971.366,96.9285 969.7,94.2618 969.5,90.5C 969.493,86.4819 971.16,83.4819 974.5,81.5 Z M 977.5,84.5 C 979.827,84.2471 981.827,84.9137 983.5,86.5C 981.977,88.2825 979.977,88.9492 977.5,88.5C 977.5,87.1667 977.5,85.8333 977.5,84.5 Z M 974.5,98.5 C 975.5,98.5 976.5,98.5 977.5,98.5C 977.192,96.076 977.526,93.7427 978.5,91.5C 980.327,93.5 981.994,95.6667 983.5,98C 984.5,98.3333 985.5,98.6667 986.5,99C 982.218,102.314 978.218,102.147 974.5,98.5 Z"/></g>
<g><path style="opacity:0.909" fill="#000000" d="M 462.5,78.5 C 477.521,77.0098 482.688,83.3432 478,97.5C 471.685,103.779 465.019,104.113 458,98.5C 453.672,90.3797 455.172,83.7131 462.5,78.5 Z"/></g>
<g><path style="opacity:0.952" fill="#000000" d="M 833.5,91.5 C 840.5,91.5 847.5,91.5 854.5,91.5C 854.5,125.833 854.5,160.167 854.5,194.5C 848.132,194.83 841.798,194.496 835.5,193.5C 834.756,190.557 834.256,187.557 834,184.5C 827.368,192.399 818.868,196.399 808.5,196.5C 776.648,193.131 762.815,175.465 767,143.5C 770.618,124.882 781.785,114.049 800.5,111C 812.805,109.326 823.638,112.493 833,120.5C 833.5,110.839 833.666,101.172 833.5,91.5 Z M 803.5,130.5 C 818.136,128.559 827.636,134.559 832,148.5C 832.985,167.181 824.152,176.347 805.5,176C 788.862,169.88 783.696,158.38 790,141.5C 793.336,136.269 797.836,132.602 803.5,130.5 Z"/></g>
<g><path style="opacity:0.935" fill="#000000" d="M 518.5,110.5 C 531.569,108.868 543.902,111.035 555.5,117C 557.208,118.51 558.874,120.01 560.5,121.5C 556.772,126.321 552.605,130.654 548,134.5C 538.656,127.565 528.489,126.065 517.5,130C 513.908,132.971 513.575,136.304 516.5,140C 518.957,141.562 521.624,142.562 524.5,143C 535.028,143.215 545.028,145.549 554.5,150C 563.481,158.449 565.981,168.615 562,180.5C 558.285,187.881 552.451,192.715 544.5,195C 528.881,198.805 513.881,197.138 499.5,190C 496.203,187.705 493.203,185.038 490.5,182C 494.006,177.001 497.673,172.167 501.5,167.5C 512.007,176.505 524.007,179.672 537.5,177C 545.255,172.209 545.255,167.542 537.5,163C 526.427,162.378 515.76,160.045 505.5,156C 492.23,146.272 490.064,134.439 499,120.5C 504.681,115.41 511.181,112.077 518.5,110.5 Z"/></g>
<g><path style="opacity:0.95" fill="#000000" d="M 606.5,110.5 C 616.646,109.427 625.979,111.594 634.5,117C 636.378,118.543 637.878,120.376 639,122.5C 639.498,119.183 639.665,115.85 639.5,112.5C 646.167,112.5 652.833,112.5 659.5,112.5C 659.5,139.833 659.5,167.167 659.5,194.5C 652.833,194.5 646.167,194.5 639.5,194.5C 639.665,191.15 639.498,187.817 639,184.5C 629.383,194.868 617.55,198.702 603.5,196C 585.881,192.048 575.381,181.215 572,163.5C 569.898,150.766 571.898,138.766 578,127.5C 585.169,117.836 594.669,112.169 606.5,110.5 Z M 610.5,129.5 C 630.609,129.443 639.776,139.443 638,159.5C 633.902,172.468 625.069,178.301 611.5,177C 596.803,172.617 590.636,162.783 593,147.5C 595.683,138.318 601.517,132.318 610.5,129.5 Z"/></g>
<g><path style="opacity:0.942" fill="#000000" d="M 901.5,110.5 C 914.271,108.728 925.105,112.394 934,121.5C 934.696,118.522 935.196,115.522 935.5,112.5C 942.167,112.5 948.833,112.5 955.5,112.5C 955.5,139.833 955.5,167.167 955.5,194.5C 948.833,194.5 942.167,194.5 935.5,194.5C 935.789,191.351 935.289,188.351 934,185.5C 922.8,196.257 909.634,199.424 894.5,195C 883.622,192.118 875.788,185.618 871,175.5C 864.319,158.677 865.319,142.343 874,126.5C 881.41,117.878 890.576,112.544 901.5,110.5 Z M 905.5,129.5 C 927.415,129.246 936.581,139.913 933,161.5C 926.442,176.024 915.608,180.524 900.5,175C 887.874,166.24 884.707,154.74 891,140.5C 894.514,135.003 899.348,131.337 905.5,129.5 Z"/></g>
<g><path style="opacity:0.943" fill="#000000" d="M 713.5,111.5 C 739.43,109.596 753.597,121.596 756,147.5C 756.5,163.163 756.667,178.83 756.5,194.5C 749.5,194.5 742.5,194.5 735.5,194.5C 735.91,177.458 735.41,160.458 734,143.5C 729.12,131.813 720.62,127.979 708.5,132C 702.536,134.634 698.703,139.134 697,145.5C 696.5,161.83 696.333,178.163 696.5,194.5C 689.5,194.5 682.5,194.5 675.5,194.5C 675.5,167.167 675.5,139.833 675.5,112.5C 681.833,112.5 688.167,112.5 694.5,112.5C 694.108,115.722 694.608,118.722 696,121.5C 701.239,116.969 707.072,113.635 713.5,111.5 Z"/></g>
<g><path style="opacity:0.943" fill="#000000" d="M 457.5,112.5 C 464.5,112.5 471.5,112.5 478.5,112.5C 478.5,139.833 478.5,167.167 478.5,194.5C 471.5,194.5 464.5,194.5 457.5,194.5C 457.5,167.167 457.5,139.833 457.5,112.5 Z"/></g>
<g><path style="opacity:1" fill="#0c1a25" d="M 66.5,94.5 C 66.5,100.833 66.5,107.167 66.5,113.5C 114.167,113.5 161.833,113.5 209.5,113.5C 209.5,107.167 209.5,100.833 209.5,94.5C 210.491,100.979 210.824,107.646 210.5,114.5C 162.167,114.5 113.833,114.5 65.5,114.5C 65.176,107.646 65.5093,100.979 66.5,94.5 Z"/></g>
<g><path style="opacity:1" fill="#fefefe" d="M 205.5,142.5 C 206.833,142.5 208.167,142.5 209.5,142.5C 209.5,155.833 209.5,169.167 209.5,182.5C 207.628,197.539 199.294,206.706 184.5,210C 152.833,210.667 121.167,210.667 89.5,210C 75.9277,205.759 68.0944,196.593 66,182.5C 65.3333,165.167 65.3333,147.833 66,130.5C 80.3378,127.38 94.8378,125.046 109.5,123.5C 109.5,139.5 109.5,155.5 109.5,171.5C 128.5,171.5 147.5,171.5 166.5,171.5C 166.5,163.833 166.5,156.167 166.5,148.5C 179.517,146.608 192.517,144.608 205.5,142.5 Z"/></g>
<g><path style="opacity:1" fill="#c4e6fe" d="M 205.5,142.5 C 206.919,141.549 208.585,141.216 210.5,141.5C 210.829,155.344 210.496,169.01 209.5,182.5C 209.5,169.167 209.5,155.833 209.5,142.5C 208.167,142.5 206.833,142.5 205.5,142.5 Z"/></g>
</svg>
