<?xml version="1.0" encoding="UTF-8"?>
<!DOCTYPE svg PUBLIC "-//W3C//DTD SVG 1.1//EN" "http://www.w3.org/Graphics/SVG/1.1/DTD/svg11.dtd">
<svg xmlns="http://www.w3.org/2000/svg" version="1.1" width="995px" height="275px" style="shape-rendering:geometricPrecision; text-rendering:geometricPrecision; image-rendering:optimizeQuality; fill-rule:evenodd; clip-rule:evenodd" xmlns:xlink="http://www.w3.org/1999/xlink">
<g><path style="opacity:0.853" fill="#fefffe" d="M 85.5,-0.5 C 119.5,-0.5 153.5,-0.5 187.5,-0.5C 223.948,6.43217 250.115,26.7655 266,60.5C 269.589,69.5216 271.922,78.8549 273,88.5C 273.667,120.833 273.667,153.167 273,185.5C 265.616,229.216 240.783,257.716 198.5,271C 190.096,272.716 181.762,273.883 173.5,274.5C 148.833,274.5 124.167,274.5 99.5,274.5C 56.6123,272.446 25.779,252.112 7,213.5C 3.74171,204.91 1.24171,196.243 -0.5,187.5C -0.5,153.5 -0.5,119.5 -0.5,85.5C 9.17057,37.8294 37.8372,9.16276 85.5,-0.5 Z M 94.5,5.5 C 122.502,5.33336 150.502,5.50002 178.5,6C 215.863,9.92368 242.696,28.757 259,62.5C 262.423,70.5234 264.756,78.8567 266,87.5C 266.959,122.2 266.625,156.867 265,191.5C 253.359,235.81 224.859,260.976 179.5,267C 150.833,267.667 122.167,267.667 93.5,267C 56.6152,263.158 30.1152,244.658 14,211.5C 9.29149,200.999 6.62482,189.999 6,178.5C 5.33333,150.5 5.33333,122.5 6,94.5C 10.042,55.1312 30.2086,27.6312 66.5,12C 75.6994,8.64216 85.0328,6.47549 94.5,5.5 Z"/></g>
<g><path style="opacity:0.974" fill="#fefffe" d="M 135.5,47.5 C 137.199,47.3398 138.866,47.5065 140.5,48C 163.667,63.1667 186.833,78.3333 210,93.5C 210.5,100.492 210.666,107.492 210.5,114.5C 162.167,114.5 113.833,114.5 65.5,114.5C 65.3337,107.492 65.5004,100.492 66,93.5C 89.3429,78.3037 112.51,62.9703 135.5,47.5 Z"/></g>
<g><path style="opacity:0.942" fill="#fefffe" d="M 383.5,75.5 C 405.106,72.3939 423.772,78.2272 439.5,93C 434.624,97.708 429.957,102.541 425.5,107.5C 407.646,93.1533 389.313,92.3199 370.5,105C 359.499,116.678 355.332,130.512 358,146.5C 361.728,162.895 371.895,172.395 388.5,175C 400.677,177.081 411.511,174.248 421,166.5C 421.5,160.175 421.666,153.842 421.5,147.5C 411.833,147.5 402.167,147.5 392.5,147.5C 392.5,140.5 392.5,133.5 392.5,126.5C 409.167,126.5 425.833,126.5 442.5,126.5C 442.667,143.17 442.5,159.837 442,176.5C 429.767,190.637 414.267,197.304 395.5,196.5C 357.426,195.594 337.093,176.094 334.5,138C 335.143,104.556 351.476,83.7222 383.5,75.5 Z"/></g>
<g><path style="opacity:0.67" fill="#fefffe" d="M 994.5,85.5 C 994.5,88.5 994.5,91.5 994.5,94.5C 987.979,105.562 979.479,107.228 969,99.5C 962.973,86.8942 966.639,78.8942 980,75.5C 986.947,75.9714 991.78,79.3047 994.5,85.5 Z M 974.5,81.5 C 979.75,78.4278 984.583,79.0945 989,83.5C 991.232,88.3967 990.899,93.0633 988,97.5C 986.702,95.7348 985.536,93.9014 984.5,92C 988.39,88.5263 988.39,85.193 984.5,82C 981.183,81.5017 977.85,81.335 974.5,81.5 Z M 974.5,81.5 C 974.5,87.1667 974.5,92.8333 974.5,98.5C 967.833,92.8333 967.833,87.1667 974.5,81.5 Z M 978.5,84.5 C 980.665,84.1159 982.332,84.7826 983.5,86.5C 982.332,88.2174 980.665,88.8841 978.5,88.5C 978.5,87.1667 978.5,85.8333 978.5,84.5 Z M 974.5,98.5 C 975.833,98.5 977.167,98.5 978.5,98.5C 978.255,89.573 979.922,89.2396 983.5,97.5C 984.376,98.2508 985.376,98.7508 986.5,99C 982.278,101.13 978.278,100.964 974.5,98.5 Z"/></g>
<g><path style="opacity:0.905" fill="#fefffe" d="M 465.5,77.5 C 478.037,78.1959 482.537,84.5292 479,96.5C 471.611,104.482 464.278,104.482 457,96.5C 453.587,87.2045 456.421,80.8712 465.5,77.5 Z"/></g>
<g><path style="opacity:0.941" fill="#fefffe" d="M 834.5,90.5 C 841.5,90.5 848.5,90.5 855.5,90.5C 855.5,125.167 855.5,159.833 855.5,194.5C 848.833,194.5 842.167,194.5 835.5,194.5C 835.11,191.161 834.61,187.827 834,184.5C 829.936,190.123 824.436,193.623 817.5,195C 785.794,198.667 768.794,184.667 766.5,153C 768.191,122.642 784.191,108.642 814.5,111C 822.09,112.544 828.59,116.044 834,121.5C 834.5,111.172 834.666,100.839 834.5,90.5 Z M 803.5,130.5 C 824.292,129.125 833.792,138.792 832,159.5C 827.689,172.24 818.855,177.74 805.5,176C 792.24,171.663 786.407,162.496 788,148.5C 789.839,139.503 795.006,133.503 803.5,130.5 Z"/></g>
<g><path style="opacity:0.937" fill="#fefffe" d="M 518.5,110.5 C 527.235,110.124 535.902,110.624 544.5,112C 550.729,113.744 556.063,116.911 560.5,121.5C 556.723,126.065 552.723,130.398 548.5,134.5C 539.022,127.228 528.689,125.728 517.5,130C 512.975,135.234 513.975,139.234 520.5,142C 529.98,142.881 539.313,144.548 548.5,147C 561.935,152.934 566.768,163.1 563,177.5C 558.906,188.31 551.073,194.476 539.5,196C 521.433,199.694 505.6,195.527 492,183.5C 491.48,181.711 491.813,180.044 493,178.5C 495.361,174.433 498.194,170.767 501.5,167.5C 511.047,175.516 522.047,179.016 534.5,178C 539.541,176.959 542.541,173.959 543.5,169C 541.661,164.731 538.327,162.397 533.5,162C 522.458,161.99 512.125,159.323 502.5,154C 493.102,145.232 491.268,135.066 497,123.5C 502.571,116.467 509.738,112.134 518.5,110.5 Z"/></g>
<g><path style="opacity:0.937" fill="#fefffe" d="M 604.5,110.5 C 618.053,108.09 629.553,111.757 639,121.5C 639.498,118.518 639.665,115.518 639.5,112.5C 646.5,112.5 653.5,112.5 660.5,112.5C 660.5,139.833 660.5,167.167 660.5,194.5C 653.833,194.5 647.167,194.5 640.5,194.5C 639.955,191.187 639.455,187.854 639,184.5C 632.036,192.811 623.036,196.811 612,196.5C 585.122,194.618 571.622,180.118 571.5,153C 571.88,130.341 582.88,116.174 604.5,110.5 Z M 609.5,129.5 C 630.806,128.306 640.306,138.306 638,159.5C 632.176,174.994 621.343,180.161 605.5,175C 592.991,166.829 589.491,155.662 595,141.5C 598.541,135.78 603.374,131.78 609.5,129.5 Z"/></g>
<g><path style="opacity:0.949" fill="#fefffe" d="M 900.5,110.5 C 913.959,108.4 925.459,112.066 935,121.5C 935.498,118.518 935.665,115.518 935.5,112.5C 942.167,112.5 948.833,112.5 955.5,112.5C 955.5,139.833 955.5,167.167 955.5,194.5C 948.833,194.5 942.167,194.5 935.5,194.5C 935.665,190.818 935.499,187.152 935,183.5C 928.274,192.778 919.107,197.111 907.5,196.5C 881.07,194.402 867.736,180.068 867.5,153.5C 866.932,130.089 877.932,115.756 900.5,110.5 Z M 905.5,129.5 C 923.031,128.033 932.697,136.033 934.5,153.5C 933.632,168.034 925.966,176.034 911.5,177.5C 893.427,174.918 885.927,164.585 889,146.5C 891.349,137.652 896.849,131.986 905.5,129.5 Z"/></g>
<g><path style="opacity:0.936" fill="#fefffe" d="M 457.5,111.5 C 464.5,111.5 471.5,111.5 478.5,111.5C 478.5,139.167 478.5,166.833 478.5,194.5C 471.5,194.5 464.5,194.5 457.5,194.5C 457.5,166.833 457.5,139.167 457.5,111.5 Z"/></g>
<g><path style="opacity:0.942" fill="#fefffe" d="M 712.5,111.5 C 737.584,108.769 752.084,119.769 756,144.5C 756.5,161.163 756.667,177.83 756.5,194.5C 749.5,194.5 742.5,194.5 735.5,194.5C 735.928,177.119 735.428,159.786 734,142.5C 728.692,131.612 720.192,128.112 708.5,132C 702.656,135.163 698.823,139.996 697,146.5C 696.5,162.497 696.333,178.497 696.5,194.5C 689.5,194.5 682.5,194.5 675.5,194.5C 675.5,167.167 675.5,139.833 675.5,112.5C 681.833,112.5 688.167,112.5 694.5,112.5C 694.351,115.607 694.851,118.607 696,121.5C 701.014,117.248 706.514,113.915 712.5,111.5 Z"/></g>
<g><path style="opacity:0.975" fill="#fefffe" d="M 104.5,122.5 C 106.167,122.5 107.833,122.5 109.5,122.5C 109.5,138.5 109.5,154.5 109.5,170.5C 128.5,170.5 147.5,170.5 166.5,170.5C 166.169,163.137 166.503,155.803 167.5,148.5C 181.5,145.833 195.5,143.167 209.5,140.5C 209.833,148 210.167,155.5 210.5,163C 210.607,171.891 210.107,180.725 209,189.5C 204.803,201.692 196.303,208.859 183.5,211C 153.167,211.667 122.833,211.667 92.5,211C 79.6971,208.859 71.1971,201.692 67,189.5C 65.5484,169.554 65.0484,149.554 65.5,129.5C 78.6818,127.471 91.6818,125.138 104.5,122.5 Z"/></g>
</svg>
