<?xml version="1.0" encoding="UTF-8"?>
<!DOCTYPE svg PUBLIC "-//W3C//DTD SVG 1.1//EN" "http://www.w3.org/Graphics/SVG/1.1/DTD/svg11.dtd">
<svg xmlns="http://www.w3.org/2000/svg" version="1.1" width="1004px" height="277px" style="shape-rendering:geometricPrecision; text-rendering:geometricPrecision; image-rendering:optimizeQuality; fill-rule:evenodd; clip-rule:evenodd" xmlns:xlink="http://www.w3.org/1999/xlink">
<g><path style="opacity:0.991" fill="#49b3fc" d="M 86.5,-0.5 C 120.5,-0.5 154.5,-0.5 188.5,-0.5C 227.583,6.64339 254.749,28.6434 270,65.5C 272.294,72.01 273.961,78.6767 275,85.5C 277,120.5 277,155.5 275,190.5C 264.636,239.033 235.136,267.7 186.5,276.5C 153.833,276.5 121.167,276.5 88.5,276.5C 39.4097,267.41 9.74301,238.41 -0.5,189.5C -0.5,155.167 -0.5,120.833 -0.5,86.5C 9.5,38.5 38.5,9.5 86.5,-0.5 Z"/></g>
<g><path style="opacity:1" fill="#000001" d="M 211.5,94.5 C 211.5,101.167 211.5,107.833 211.5,114.5C 163.167,114.5 114.833,114.5 66.5,114.5C 66.17,107.8 66.5033,101.134 67.5,94.5C 91.2093,78.9541 115.043,63.6208 139,48.5C 163.263,63.7129 187.43,79.0462 211.5,94.5 Z"/></g>
<g><path style="opacity:0.94" fill="#fefffe" d="M 393.5,75.5 C 412.914,74.4689 429.581,80.6356 443.5,94C 438.667,98.8333 433.833,103.667 429,108.5C 407.396,91.606 387.063,92.9393 368,112.5C 358.034,129.57 358.034,146.57 368,163.5C 380.762,176.457 395.928,180.29 413.5,175C 417.496,173.337 421.163,171.171 424.5,168.5C 425.497,161.866 425.83,155.2 425.5,148.5C 415.5,148.5 405.5,148.5 395.5,148.5C 395.5,141.5 395.5,134.5 395.5,127.5C 412.5,127.5 429.5,127.5 446.5,127.5C 446.667,144.503 446.5,161.503 446,178.5C 430.075,195.364 410.575,201.864 387.5,198C 354.954,191.96 338.287,172.293 337.5,139C 339.178,102.505 357.845,81.3385 393.5,75.5 Z"/></g>
<g><path style="opacity:0.688" fill="#fefffe" d="M 1003.5,86.5 C 1003.5,89.5 1003.5,92.5 1003.5,95.5C 998.995,104.221 991.995,107.054 982.5,104C 974.336,98.4998 972.502,91.3332 977,82.5C 987.511,73.4994 996.344,74.8327 1003.5,86.5 Z M 983.5,99.5 C 977.197,94.1569 976.864,88.3235 982.5,82C 991.888,77.8612 997.554,80.8612 999.5,91C 999.385,93.7318 998.552,96.2318 997,98.5C 995.38,96.7585 993.88,94.9252 992.5,93C 995.519,90.3872 996.186,87.2205 994.5,83.5C 990.906,82.5741 987.24,82.2408 983.5,82.5C 983.5,88.1667 983.5,93.8333 983.5,99.5 Z M 986.5,85.5 C 988.977,85.0508 990.977,85.7175 992.5,87.5C 990.977,89.2825 988.977,89.9492 986.5,89.5C 986.5,88.1667 986.5,86.8333 986.5,85.5 Z M 983.5,99.5 C 984.5,99.5 985.5,99.5 986.5,99.5C 986.192,97.076 986.526,94.7427 987.5,92.5C 989.727,95.1369 992.06,97.6369 994.5,100C 993.056,101.064 991.389,101.564 989.5,101.5C 987.117,101.639 985.117,100.972 983.5,99.5 Z"/></g>
<g><path style="opacity:0.901" fill="#fefffe" d="M 468.5,78.5 C 480.837,77.6697 486.004,83.3364 484,95.5C 477.229,105.18 469.562,105.847 461,97.5C 457.762,88.6881 460.262,82.3548 468.5,78.5 Z"/></g>
<g><path style="opacity:0.95" fill="#fefffe" d="M 841.5,91.5 C 848.5,91.5 855.5,91.5 862.5,91.5C 862.5,126.5 862.5,161.5 862.5,196.5C 855.833,196.5 849.167,196.5 842.5,196.5C 842.816,193.022 842.316,189.688 841,186.5C 836.936,192.123 831.436,195.623 824.5,197C 808.408,200.022 794.574,195.856 783,184.5C 773.177,169.695 770.844,153.695 776,136.5C 784.919,117.06 800.086,108.894 821.5,112C 829.377,113.021 835.877,116.521 841,122.5C 841.5,112.172 841.666,101.839 841.5,91.5 Z M 811.5,131.5 C 832.926,131.088 842.093,141.421 839,162.5C 832.406,176.216 821.906,180.716 807.5,176C 795.843,168.921 792.01,158.754 796,145.5C 799.049,138.407 804.215,133.74 811.5,131.5 Z"/></g>
<g><path style="opacity:0.936" fill="#fefffe" d="M 522.5,111.5 C 531.559,111.154 540.559,111.654 549.5,113C 555.663,114.909 560.996,118.076 565.5,122.5C 561.874,127.461 557.874,132.128 553.5,136.5C 544.243,128.846 533.91,127.012 522.5,131C 517.464,137.654 519.131,141.987 527.5,144C 537.848,144.407 547.848,146.407 557.5,150C 565.11,154.88 569.11,161.88 569.5,171C 568.785,184.718 561.785,193.384 548.5,197C 533.211,200.279 518.544,198.612 504.5,192C 501.021,189.688 498.021,186.854 495.5,183.5C 498.805,178.362 502.305,173.362 506,168.5C 516.873,178.464 529.373,181.631 543.5,178C 549.889,173.405 549.889,169.071 543.5,165C 535.54,163.504 527.54,162.171 519.5,161C 499.759,155.017 493.925,142.517 502,123.5C 507.773,117.535 514.607,113.535 522.5,111.5 Z"/></g>
<g><path style="opacity:0.949" fill="#fefffe" d="M 610.5,111.5 C 621.369,109.962 631.369,112.128 640.5,118C 642.378,119.543 643.878,121.376 645,123.5C 645.498,120.183 645.665,116.85 645.5,113.5C 652.167,113.5 658.833,113.5 665.5,113.5C 665.5,141.167 665.5,168.833 665.5,196.5C 658.833,196.5 652.167,196.5 645.5,196.5C 645.665,192.818 645.499,189.152 645,185.5C 638.182,194.509 629.016,198.842 617.5,198.5C 590.371,196.769 576.705,182.269 576.5,155C 576.568,131.457 587.901,116.957 610.5,111.5 Z M 616.5,130.5 C 636.121,130.287 645.287,139.954 644,159.5C 639.89,174.645 630.056,180.811 614.5,178C 601.984,173.147 596.484,163.98 598,150.5C 599.91,139.761 606.077,133.094 616.5,130.5 Z"/></g>
<g><path style="opacity:0.939" fill="#fefffe" d="M 909.5,111.5 C 922.615,109.564 933.782,113.23 943,122.5C 943.498,119.518 943.665,116.518 943.5,113.5C 950.5,113.5 957.5,113.5 964.5,113.5C 964.5,141.167 964.5,168.833 964.5,196.5C 957.8,196.83 951.134,196.497 944.5,195.5C 943.756,192.557 943.256,189.557 943,186.5C 933.714,196.7 922.214,200.533 908.5,198C 885.592,192.732 874.258,178.232 874.5,154.5C 874.941,130.749 886.608,116.415 909.5,111.5 Z M 914.5,130.5 C 935.109,130.612 944.276,140.945 942,161.5C 935.52,177.782 924.02,182.615 907.5,176C 899.896,171.133 895.896,164.133 895.5,155C 896.499,142.426 902.832,134.259 914.5,130.5 Z"/></g>
<g><path style="opacity:0.935" fill="#fefffe" d="M 719.5,112.5 C 746.866,110.363 761.366,123.03 763,150.5C 763.5,165.83 763.667,181.163 763.5,196.5C 756.167,196.5 748.833,196.5 741.5,196.5C 741.946,178.444 741.446,160.444 740,142.5C 732.982,131.055 723.482,128.555 711.5,135C 707.279,138.605 704.446,143.105 703,148.5C 702.5,164.497 702.333,180.497 702.5,196.5C 695.5,196.5 688.5,196.5 681.5,196.5C 681.5,168.833 681.5,141.167 681.5,113.5C 687.833,113.5 694.167,113.5 700.5,113.5C 700.674,116.874 701.174,120.207 702,123.5C 706.869,118.157 712.703,114.49 719.5,112.5 Z"/></g>
<g><path style="opacity:0.95" fill="#fefffe" d="M 461.5,113.5 C 468.5,113.5 475.5,113.5 482.5,113.5C 482.5,141.167 482.5,168.833 482.5,196.5C 475.5,196.5 468.5,196.5 461.5,196.5C 461.5,168.833 461.5,141.167 461.5,113.5 Z"/></g>
<g><path style="opacity:1" fill="#122d40" d="M 211.5,94.5 C 212.491,101.313 212.825,108.313 212.5,115.5C 163.664,115.832 114.997,115.499 66.5,114.5C 114.833,114.5 163.167,114.5 211.5,114.5C 211.5,107.833 211.5,101.167 211.5,94.5 Z"/></g>
<g><path style="opacity:1" fill="#fefefe" d="M 208.5,143.5 C 209.5,143.5 210.5,143.5 211.5,143.5C 211.5,157.167 211.5,170.833 211.5,184.5C 208.942,198.892 200.609,208.059 186.5,212C 154.5,212.667 122.5,212.667 90.5,212C 78.236,208.07 70.4026,199.903 67,187.5C 66.167,168.824 66.3337,150.158 67.5,131.5C 81.6906,128.33 96.0239,125.996 110.5,124.5C 110.5,140.5 110.5,156.5 110.5,172.5C 129.833,172.5 149.167,172.5 168.5,172.5C 168.5,164.833 168.5,157.167 168.5,149.5C 181.839,147.594 195.172,145.594 208.5,143.5 Z"/></g>
<g><path style="opacity:1" fill="#b7e1fe" d="M 208.5,143.5 C 209.568,142.566 210.901,142.232 212.5,142.5C 212.829,156.677 212.496,170.677 211.5,184.5C 211.5,170.833 211.5,157.167 211.5,143.5C 210.5,143.5 209.5,143.5 208.5,143.5 Z"/></g>
</svg>
