<?xml version="1.0" encoding="UTF-8"?>
<!DOCTYPE svg PUBLIC "-//W3C//DTD SVG 1.1//EN" "http://www.w3.org/Graphics/SVG/1.1/DTD/svg11.dtd">
<svg xmlns="http://www.w3.org/2000/svg" version="1.1" width="992px" height="273px" style="shape-rendering:geometricPrecision; text-rendering:geometricPrecision; image-rendering:optimizeQuality; fill-rule:evenodd; clip-rule:evenodd" xmlns:xlink="http://www.w3.org/1999/xlink">
<g><path style="opacity:0.991" fill="#f3f3f3" d="M 84.5,-0.5 C 118.5,-0.5 152.5,-0.5 186.5,-0.5C 234.594,9.09543 263.094,38.0954 272,86.5C 272.667,119.167 272.667,151.833 272,184.5C 266.273,222.222 246.107,249.055 211.5,265C 202.284,268.468 192.951,270.968 183.5,272.5C 151.833,272.5 120.167,272.5 88.5,272.5C 39.4479,263.821 9.78128,235.155 -0.5,186.5C -0.5,152.5 -0.5,118.5 -0.5,84.5C 9.5,37.8333 37.8333,9.5 84.5,-0.5 Z"/></g>
<g><path style="opacity:1" fill="#010101" d="M 136.5,47.5 C 160.613,62.3952 184.613,77.5618 208.5,93C 209.479,99.7445 209.812,106.578 209.5,113.5C 161.5,113.5 113.5,113.5 65.5,113.5C 65.1878,106.578 65.5212,99.7445 66.5,93C 90.0688,78.0583 113.402,62.8917 136.5,47.5 Z"/></g>
<g><path style="opacity:0.95" fill="#000000" d="M 387.5,74.5 C 406.965,73.2068 423.632,79.2068 437.5,92.5C 433.114,97.3837 428.614,102.05 424,106.5C 405.211,92.1786 386.378,92.012 367.5,106C 355.474,121.04 352.974,137.54 360,155.5C 369.927,171.04 384.094,177.207 402.5,174C 409.074,172.629 414.907,169.796 420,165.5C 420.5,159.175 420.666,152.842 420.5,146.5C 410.5,146.5 400.5,146.5 390.5,146.5C 390.5,139.833 390.5,133.167 390.5,126.5C 407.167,126.5 423.833,126.5 440.5,126.5C 440.667,143.17 440.5,159.837 440,176.5C 424.154,192.594 404.988,198.76 382.5,195C 348.179,187.91 332.013,166.744 334,131.5C 337.349,98.6572 355.182,79.6572 387.5,74.5 Z"/></g>
<g><path style="opacity:0.707" fill="#000000" d="M 991.5,86.5 C 991.5,88.5 991.5,90.5 991.5,92.5C 987.411,102.708 980.078,105.875 969.5,102C 960.656,94.2989 960.323,86.2989 968.5,78C 979.274,72.8654 986.941,75.6988 991.5,86.5 Z M 974.5,78.5 C 985.295,79.4185 989.129,85.0852 986,95.5C 985.586,95.9574 985.086,96.2907 984.5,96.5C 982.973,94.8067 981.64,92.9734 980.5,91C 981.416,90.6258 982.25,90.1258 983,89.5C 983.769,86.9009 983.602,84.4009 982.5,82C 978.848,81.5014 975.182,81.3347 971.5,81.5C 971.5,86.8333 971.5,92.1667 971.5,97.5C 972.5,97.5 973.5,97.5 974.5,97.5C 974.5,95.5 974.5,93.5 974.5,91.5C 977.182,93.9138 980.182,96.0805 983.5,98C 976.084,102.046 970.584,100.213 967,92.5C 966.11,85.9429 968.61,81.2762 974.5,78.5 Z M 974.5,84.5 C 982.378,85.6016 982.378,86.935 974.5,88.5C 974.5,87.1667 974.5,85.8333 974.5,84.5 Z"/></g>
<g><path style="opacity:0.912" fill="#000000" d="M 461.5,77.5 C 474.342,76.1741 479.842,81.8408 478,94.5C 474.235,100.76 468.735,102.927 461.5,101C 454.93,97.3449 452.763,91.8449 455,84.5C 456.694,81.6424 458.861,79.309 461.5,77.5 Z"/></g>
<g><path style="opacity:0.943" fill="#000000" d="M 831.5,90.5 C 838.5,90.5 845.5,90.5 852.5,90.5C 852.5,124.833 852.5,159.167 852.5,193.5C 845.833,193.5 839.167,193.5 832.5,193.5C 832.543,190.09 832.043,186.757 831,183.5C 826.936,189.123 821.436,192.623 814.5,194C 792.706,197.686 776.873,189.853 767,170.5C 761.822,154.925 763.155,139.925 771,125.5C 784.599,110.309 801.099,106.142 820.5,113C 824.44,114.886 827.94,117.386 831,120.5C 831.5,110.506 831.666,100.506 831.5,90.5 Z M 802.5,129.5 C 822.837,129.337 831.67,139.337 829,159.5C 821.188,175.416 809.354,179.25 793.5,171C 781.231,158.009 781.564,145.343 794.5,133C 797.158,131.522 799.825,130.355 802.5,129.5 Z"/></g>
<g><path style="opacity:0.934" fill="#000000" d="M 518.5,109.5 C 530.879,108.01 542.546,110.176 553.5,116C 555.208,117.51 556.874,119.01 558.5,120.5C 554.856,125.312 551.022,129.979 547,134.5C 537.839,127.001 527.672,125.168 516.5,129C 511.183,133.771 511.85,137.771 518.5,141C 527.919,142.203 537.252,143.869 546.5,146C 560.156,152.259 564.989,162.759 561,177.5C 556.371,187.571 548.538,193.404 537.5,195C 522.948,197.448 509.281,195.115 496.5,188C 493.868,185.873 491.534,183.54 489.5,181C 492.233,175.764 495.566,170.931 499.5,166.5C 507.707,172.933 517.04,176.6 527.5,177.5C 533.499,177.899 537.999,175.566 541,170.5C 541.832,166.006 539.998,163.172 535.5,162C 523.153,161.532 511.487,158.532 500.5,153C 493.185,146.382 490.685,138.216 493,128.5C 494.623,122.543 498.123,118.043 503.5,115C 508.434,112.637 513.434,110.804 518.5,109.5 Z"/></g>
<g><path style="opacity:0.948" fill="#000000" d="M 606.5,109.5 C 616.461,108.787 625.461,111.287 633.5,117C 635.049,118.214 636.215,119.714 637,121.5C 637.498,118.183 637.665,114.85 637.5,111.5C 644.167,111.5 650.833,111.5 657.5,111.5C 657.5,138.833 657.5,166.167 657.5,193.5C 651.158,193.666 644.825,193.5 638.5,193C 637.712,189.924 637.212,186.758 637,183.5C 627.707,193.704 616.207,197.537 602.5,195C 583.459,191.291 572.625,179.791 570,160.5C 566.571,131.946 578.737,114.946 606.5,109.5 Z M 609.5,128.5 C 629.103,128.938 637.936,138.938 636,158.5C 630.14,174.013 619.306,179.18 603.5,174C 593.004,167.834 588.837,158.667 591,146.5C 593.789,136.875 599.956,130.875 609.5,128.5 Z"/></g>
<g><path style="opacity:0.942" fill="#000000" d="M 900.5,109.5 C 912.566,108.131 922.733,111.798 931,120.5C 932.149,117.607 932.649,114.607 932.5,111.5C 939.167,111.5 945.833,111.5 952.5,111.5C 952.5,138.833 952.5,166.167 952.5,193.5C 945.833,193.5 939.167,193.5 932.5,193.5C 932.817,190.428 932.484,187.428 931.5,184.5C 920.403,195.024 907.403,198.19 892.5,194C 877.383,189.215 868.216,179.049 865,163.5C 860.999,144.163 866.499,128.329 881.5,116C 887.59,112.738 893.924,110.571 900.5,109.5 Z M 903.5,128.5 C 920.557,127.56 929.89,135.56 931.5,152.5C 930.555,167.278 922.722,175.278 908,176.5C 890.196,173.685 882.863,163.352 886,145.5C 888.781,136.554 894.614,130.887 903.5,128.5 Z"/></g>
<g><path style="opacity:0.952" fill="#000000" d="M 712.5,110.5 C 734.696,108.873 748.196,118.873 753,140.5C 753.5,158.164 753.667,175.83 753.5,193.5C 746.5,193.5 739.5,193.5 732.5,193.5C 732.667,176.83 732.5,160.163 732,143.5C 727.447,131.474 718.947,127.307 706.5,131C 700.508,133.659 696.675,138.159 695,144.5C 693.577,160.785 693.077,177.118 693.5,193.5C 686.833,193.5 680.167,193.5 673.5,193.5C 673.5,166.167 673.5,138.833 673.5,111.5C 679.509,111.334 685.509,111.501 691.5,112C 692.125,114.8 692.792,117.634 693.5,120.5C 699.211,115.813 705.544,112.48 712.5,110.5 Z"/></g>
<g><path style="opacity:0.939" fill="#000000" d="M 455.5,111.5 C 462.5,111.5 469.5,111.5 476.5,111.5C 476.5,138.833 476.5,166.167 476.5,193.5C 469.5,193.5 462.5,193.5 455.5,193.5C 455.5,166.167 455.5,138.833 455.5,111.5 Z"/></g>
<g><path style="opacity:1" fill="#49b3fc" d="M 108.5,122.5 C 108.5,138.5 108.5,154.5 108.5,170.5C 127.833,170.5 147.167,170.5 166.5,170.5C 166.5,163.167 166.5,155.833 166.5,148.5C 180.567,145.098 194.9,142.431 209.5,140.5C 209.667,155.17 209.5,169.837 209,184.5C 205.5,197.333 197.333,205.5 184.5,209C 152.833,209.667 121.167,209.667 89.5,209C 77.236,205.07 69.4026,196.903 66,184.5C 65.3333,166.167 65.3333,147.833 66,129.5C 80,126.361 94.1667,124.028 108.5,122.5 Z"/></g>
<g><path style="opacity:1" fill="#acd8f8" d="M 108.5,122.5 C 109.496,137.991 109.83,153.658 109.5,169.5C 128.167,169.5 146.833,169.5 165.5,169.5C 165.175,162.313 165.509,155.313 166.5,148.5C 166.5,155.833 166.5,163.167 166.5,170.5C 147.167,170.5 127.833,170.5 108.5,170.5C 108.5,154.5 108.5,138.5 108.5,122.5 Z"/></g>
</svg>
