<svg width="16" height="17" viewBox="0 0 16 17" fill="none" xmlns="http://www.w3.org/2000/svg">
<path fill-rule="evenodd" clip-rule="evenodd" d="M11.6667 3.16663C12.1067 3.16663 12.48 3.44663 12.6133 3.83996L14 7.83329V13.1666C14 13.5333 13.7 13.8333 13.3333 13.8333H12.6667C12.3 13.8333 12 13.5333 12 13.1666V12.5H4V13.1666C4 13.5333 3.7 13.8333 3.33333 13.8333H2.66667C2.3 13.8333 2 13.5333 2 13.1666V7.83329L3.38667 3.83996C3.52667 3.44663 3.89333 3.16663 4.33333 3.16663H11.6667ZM3.33333 9.49996C3.33333 10.0533 3.78 10.5 4.33333 10.5C4.88667 10.5 5.33333 10.0533 5.33333 9.49996C5.33333 8.94663 4.88667 8.49996 4.33333 8.49996C3.78 8.49996 3.33333 8.94663 3.33333 9.49996ZM11.6667 10.5C11.1133 10.5 10.6667 10.0533 10.6667 9.49996C10.6667 8.94663 11.1133 8.49996 11.6667 8.49996C12.22 8.49996 12.6667 8.94663 12.6667 9.49996C12.6667 10.0533 12.22 10.5 11.6667 10.5ZM4.33333 4.16663L3.33333 7.16663H12.6667L11.6667 4.16663H4.33333Z" fill="black"/>
</svg>
