<svg width="16" height="17" viewBox="0 0 16 17" fill="none" xmlns="http://www.w3.org/2000/svg">
<path fill-rule="evenodd" clip-rule="evenodd" d="M10.3333 2.49996C10.3333 3.23329 9.73333 3.83329 9 3.83329C8.26667 3.83329 7.66667 3.23329 7.66667 2.49996C7.66667 1.76663 8.26667 1.16663 9 1.16663C9.73333 1.16663 10.3333 1.76663 10.3333 2.49996ZM5.66667 9.83329L6.5 6.09996L5.33333 6.59996V8.83329H4V5.69996L7.5 4.26663C7.66667 4.19996 7.83333 4.16663 8 4.16663C8.46667 4.16663 8.9 4.39996 9.13333 4.79996L9.76667 5.86663C10.3667 6.83329 11.4333 7.49996 12.6667 7.49996V8.83329C11.2 8.83329 9.9 8.16663 9.03333 7.09996L8.63333 9.09996L10 10.4666V15.5H8.66667V11.5L7.23333 10.1666L7 12.8333L6.06667 15.5H4.66667L5.66667 12.5V9.83329Z" fill="black"/>
</svg>
