<svg width="16" height="16" viewBox="0 0 16 16" fill="none" xmlns="http://www.w3.org/2000/svg">
<path d="M1 15L15 14.9972" stroke="black"/>
<path d="M7 14.5V12L9 12.0028V14.5" stroke="black"/>
<path d="M3 1H13L12.9203 15H3V1Z" stroke="black"/>
<path d="M9 3H10L9.99203 4H9V3Z" stroke="black"/>
<path d="M9 6H10L9.99203 7H9V6Z" stroke="black"/>
<path d="M9 9H10L9.99203 10H9V9Z" stroke="black"/>
<path d="M6 3H7L6.99203 4H6V3Z" stroke="black"/>
<path d="M6 6H7L6.99203 7H6V6Z" stroke="black"/>
<path d="M6 9H7L6.99203 10H6V9Z" stroke="black"/>
</svg>
