<?xml version="1.0" encoding="UTF-8" standalone="no"?>
<svg
   width="161"
   height="44"
   viewBox="0 0 161 44"
   fill="none"
   version="1.1"
   id="svg13"
   xmlns="http://www.w3.org/2000/svg"
   xmlns:svg="http://www.w3.org/2000/svg">
  <defs
     id="defs13" />
  <path
     opacity="0.94"
     fill-rule="evenodd"
     clip-rule="evenodd"
     d="M66.0258 12.0722C69.2381 11.9084 71.9959 12.888 74.299 15.0108C73.4993 15.7786 72.6995 16.5464 71.8998 17.3141C68.3251 14.6305 64.9607 14.8423 61.8065 17.9494C60.1575 20.6609 60.1575 23.3613 61.8065 26.0505C63.9182 28.1087 66.4276 28.7175 69.3351 27.8772C69.9963 27.6131 70.603 27.269 71.1552 26.8448C71.3202 25.791 71.3753 24.7321 71.3207 23.6679C69.666 23.6679 68.0114 23.6679 66.3568 23.6679C66.3568 22.5559 66.3568 21.444 66.3568 20.3321C69.1696 20.3321 71.9825 20.3321 74.7954 20.3321C74.823 23.033 74.7954 25.7333 74.7127 28.4332C72.0777 31.112 68.8511 32.1445 65.0331 31.5307C59.6479 30.5713 56.8901 27.4473 56.7599 22.1588C57.0375 16.3618 60.1262 12.9996 66.0258 12.0722Z"
     fill="black"
     id="path1" />
  <path
     opacity="0.901"
     fill-rule="evenodd"
     clip-rule="evenodd"
     d="M78.4356 12.5487C80.4769 12.4168 81.3318 13.3169 81.0002 15.249C79.8799 16.7866 78.6113 16.8926 77.1946 15.5667C76.6588 14.167 77.0725 13.161 78.4356 12.5487Z"
     fill="black"
     id="path2" />
  <path
     opacity="0.95"
     fill-rule="evenodd"
     clip-rule="evenodd"
     d="M140.153 14.6136C141.312 14.6136 142.47 14.6136 143.628 14.6136C143.628 20.1732 143.628 25.7327 143.628 31.2923C142.525 31.2923 141.422 31.2923 140.319 31.2923C140.371 30.7399 140.288 30.2103 140.071 29.7039C139.398 30.5971 138.488 31.153 137.34 31.3717C134.678 31.8518 132.389 31.19 130.474 29.3862C128.848 27.0345 128.462 24.493 129.316 21.7616C130.791 18.6737 133.301 17.3766 136.844 17.8699C138.147 18.0321 139.223 18.5881 140.071 19.5378C140.153 17.8973 140.181 16.2559 140.153 14.6136ZM135.189 20.9674C138.735 20.902 140.251 22.5433 139.74 25.8916C138.649 28.0703 136.911 28.7851 134.528 28.036C132.599 26.9115 131.965 25.2966 132.625 23.1912C133.129 22.0645 133.984 21.3232 135.189 20.9674Z"
     fill="black"
     id="path3" />
  <path
     opacity="0.936"
     fill-rule="evenodd"
     clip-rule="evenodd"
     d="M87.3706 17.7905C88.8695 17.7355 90.3587 17.815 91.8381 18.0288C92.8578 18.332 93.7403 18.8351 94.4855 19.5378C93.8855 20.3258 93.2237 21.0672 92.4999 21.7616C90.9683 20.5458 89.2585 20.2545 87.3706 20.888C86.5373 21.9449 86.8131 22.6332 88.1979 22.953C89.9101 23.0176 91.5647 23.3353 93.1618 23.906C94.421 24.6812 95.0828 25.7931 95.1474 27.2418C95.0291 29.4208 93.8708 30.7974 91.6726 31.3717C89.1429 31.8926 86.716 31.6278 84.3922 30.5775C83.8166 30.2103 83.3202 29.7601 82.9031 29.2273C83.4499 28.4112 84.0291 27.617 84.6404 26.8447C86.4395 28.4274 88.5078 28.9305 90.8453 28.3537C91.9025 27.6238 91.9025 26.9354 90.8453 26.2887C89.5282 26.0511 88.2045 25.8393 86.8742 25.6533C83.6078 24.703 82.6425 22.7174 83.9786 19.6966C84.9338 18.7491 86.0646 18.1138 87.3706 17.7905Z"
     fill="black"
     id="path4" />
  <path
     opacity="0.949"
     fill-rule="evenodd"
     clip-rule="evenodd"
     d="M101.931 17.7905C103.73 17.5462 105.384 17.8903 106.895 18.823C107.206 19.0681 107.454 19.3593 107.64 19.6967C107.722 19.1698 107.75 18.6403 107.723 18.1082C108.826 18.1082 109.929 18.1082 111.032 18.1082C111.032 22.503 111.032 26.8976 111.032 31.2923C109.929 31.2923 108.826 31.2923 107.723 31.2923C107.75 30.7075 107.722 30.1251 107.64 29.545C106.512 30.9761 104.995 31.6643 103.09 31.61C98.6007 31.3351 96.3395 29.0318 96.3056 24.7003C96.3169 20.9606 98.192 18.6573 101.931 17.7905ZM102.924 20.8086C106.171 20.7747 107.687 22.3103 107.474 25.4151C106.794 27.8208 105.167 28.8002 102.593 28.3537C100.522 27.5828 99.6122 26.1267 99.8631 23.9855C100.179 22.2796 101.2 21.2206 102.924 20.8086Z"
     fill="black"
     id="path5" />
  <path
     opacity="0.939"
     fill-rule="evenodd"
     clip-rule="evenodd"
     d="M151.405 17.7905C153.575 17.483 155.423 18.0653 156.948 19.5378C157.03 19.0641 157.058 18.5876 157.031 18.1082C158.189 18.1082 159.347 18.1082 160.505 18.1082C160.505 22.503 160.505 26.8976 160.505 31.2923C159.397 31.3447 158.294 31.2919 157.196 31.1335C157.073 30.666 156.99 30.1895 156.948 29.7039C155.411 31.3241 153.509 31.9329 151.239 31.5306C147.449 30.6938 145.574 28.3906 145.614 24.6208C145.687 20.8481 147.617 18.5712 151.405 17.7905ZM152.232 20.8086C155.642 20.8264 157.159 22.4677 156.782 25.7328C155.71 28.3191 153.807 29.0868 151.074 28.036C149.816 27.2629 149.154 26.151 149.088 24.7003C149.254 22.703 150.302 21.4057 152.232 20.8086Z"
     fill="black"
     id="path6" />
  <path
     opacity="0.935"
     fill-rule="evenodd"
     clip-rule="evenodd"
     d="M119.967 17.9493C124.495 17.6099 126.894 19.622 127.165 23.9854C127.247 26.4205 127.275 28.8561 127.247 31.2923C126.034 31.2923 124.82 31.2923 123.607 31.2923C123.681 28.4242 123.598 25.565 123.359 22.7147C122.198 20.8967 120.626 20.4996 118.643 21.5234C117.945 22.096 117.476 22.8108 117.237 23.6678C117.154 26.2088 117.126 28.7503 117.154 31.2923C115.996 31.2923 114.838 31.2923 113.679 31.2923C113.679 26.8976 113.679 22.503 113.679 18.1082C114.727 18.1082 115.775 18.1082 116.823 18.1082C116.852 18.6441 116.935 19.1736 117.071 19.6966C117.877 18.8479 118.842 18.2654 119.967 17.9493Z"
     fill="black"
     id="path7" />
  <path
     opacity="0.95"
     fill-rule="evenodd"
     clip-rule="evenodd"
     d="M77.2773 18.1082C78.4356 18.1082 79.5938 18.1082 80.7521 18.1082C80.7521 22.503 80.7521 26.8976 80.7521 31.2923C79.5938 31.2923 78.4356 31.2923 77.2773 31.2923C77.2773 26.8976 77.2773 22.503 77.2773 18.1082Z"
     fill="black"
     id="path8" />
  <path
     opacity="0.991"
     fill-rule="evenodd"
     clip-rule="evenodd"
     d="M15.2286 0C20.8544 0 26.4801 0 32.1059 0C38.5727 1.13469 43.0677 4.62928 45.5911 10.4838C45.9707 11.5178 46.2465 12.5768 46.4185 13.6607C46.7494 19.2202 46.7494 24.7798 46.4185 30.3394C44.7036 38.0486 39.8224 42.6022 31.775 44C26.3698 44 20.9647 44 15.5595 44C7.4369 42.5561 2.52816 37.9496 0.833313 30.1805C0.833313 24.7269 0.833313 19.2731 0.833313 13.8195C2.48795 6.19495 7.28638 1.58845 15.2286 0Z"
     fill="#898989"
     id="path9"
     style="fill:#4bb4fc;fill-opacity:1" />
  <path
     fill-rule="evenodd"
     clip-rule="evenodd"
     d="M35.9115 15.0902C35.9115 16.1493 35.9115 17.2081 35.9115 18.2671C27.9142 18.2671 19.9167 18.2671 11.9194 18.2671C11.8648 17.2029 11.9199 16.144 12.0848 15.0902C16.0078 12.6209 19.9514 10.1852 23.9154 7.78339C27.9301 10.1999 31.9288 12.6355 35.9115 15.0902Z"
     fill="black"
     id="path10" />
  <path
     fill-rule="evenodd"
     clip-rule="evenodd"
     d="M35.4151 22.8736C35.5806 22.8736 35.7461 22.8736 35.9115 22.8736C35.9115 25.0446 35.9115 27.2153 35.9115 29.3863C35.4883 31.6724 34.1095 33.1285 31.775 33.7545C26.4801 33.8605 21.1853 33.8605 15.8905 33.7545C13.8612 33.1302 12.5651 31.833 12.0021 29.8628C11.8643 26.8962 11.8918 23.9312 12.0848 20.9675C14.4328 20.464 16.8045 20.0932 19.1997 19.8556C19.1997 22.3971 19.1997 24.9386 19.1997 27.4801C22.3986 27.4801 25.5977 27.4801 28.7966 27.4801C28.7966 26.2623 28.7966 25.0446 28.7966 23.8267C31.0037 23.524 33.2099 23.2063 35.4151 22.8736Z"
     fill="white"
     id="path12" />
</svg>
