<?xml version="1.0" encoding="UTF-8"?>
<!DOCTYPE svg PUBLIC "-//W3C//DTD SVG 1.1//EN" "http://www.w3.org/Graphics/SVG/1.1/DTD/svg11.dtd">
<svg xmlns="http://www.w3.org/2000/svg" version="1.1" width="1082px" height="291px" style="shape-rendering:geometricPrecision; text-rendering:geometricPrecision; image-rendering:optimizeQuality; fill-rule:evenodd; clip-rule:evenodd" xmlns:xlink="http://www.w3.org/1999/xlink">
<g><path style="opacity:0.843" fill="#000000" d="M 90.5,-0.5 C 126.167,-0.5 161.833,-0.5 197.5,-0.5C 250.731,10.2346 281.231,42.5679 289,96.5C 289.667,128.5 289.667,160.5 289,192.5C 285.011,229.007 267.511,256.841 236.5,276C 219.846,285.077 202.179,289.91 183.5,290.5C 157.167,290.5 130.833,290.5 104.5,290.5C 56.8208,287.34 23.6541,263.673 5,219.5C 2.97999,212.414 1.14665,205.414 -0.5,198.5C -0.5,162.5 -0.5,126.5 -0.5,90.5C 10.1756,40.4911 40.5089,10.1577 90.5,-0.5 Z M 92.5,6.5 C 126.835,6.33335 161.168,6.50002 195.5,7C 245.903,17.0705 274.736,47.5705 282,98.5C 282.942,131.86 282.608,165.194 281,198.5C 271.079,244.754 242.912,272.588 196.5,282C 159.8,282.961 123.133,282.628 86.5,281C 41.8104,269.976 15.3104,241.81 7,196.5C 6.33333,162.167 6.33333,127.833 7,93.5C 15.8893,45.1115 44.3893,16.1115 92.5,6.5 Z"/></g>
<g><path style="opacity:0.969" fill="#000000" d="M 145.5,49.5 C 170.816,65.8071 196.149,82.1404 221.5,98.5C 222.307,106.166 222.973,113.833 223.5,121.5C 172.167,121.5 120.833,121.5 69.5,121.5C 69.185,113.58 69.5183,105.747 70.5,98C 95.9053,82.3076 120.905,66.1409 145.5,49.5 Z"/></g>
<g><path style="opacity:0.949" fill="#000000" d="M 356.5,83.5 C 381.833,83.5 407.167,83.5 432.5,83.5C 432.5,90.8333 432.5,98.1667 432.5,105.5C 415.167,105.5 397.833,105.5 380.5,105.5C 380.5,139.167 380.5,172.833 380.5,206.5C 372.5,206.5 364.5,206.5 356.5,206.5C 356.5,165.5 356.5,124.5 356.5,83.5 Z"/></g>
<g><path style="opacity:0.706" fill="#000000" d="M 1081.5,95.5 C 1081.5,97.5 1081.5,99.5 1081.5,101.5C 1076.97,112.962 1068.97,116.128 1057.5,111C 1049.16,103.635 1048.49,95.6345 1055.5,87C 1061.93,82.769 1068.6,82.4357 1075.5,86C 1078.23,88.8552 1080.23,92.0219 1081.5,95.5 Z M 1064.5,86.5 C 1073.62,87.4481 1077.79,92.4481 1077,101.5C 1076.25,103.332 1075.25,104.999 1074,106.5C 1072.5,104.333 1071,102.167 1069.5,100C 1074.41,97.1273 1074.74,93.794 1070.5,90C 1067.18,89.5017 1063.85,89.335 1060.5,89.5C 1060.5,95.5 1060.5,101.5 1060.5,107.5C 1061.5,107.5 1062.5,107.5 1063.5,107.5C 1063.5,105.167 1063.5,102.833 1063.5,100.5C 1064.68,100.281 1065.68,100.614 1066.5,101.5C 1067.67,104.504 1069.67,106.671 1072.5,108C 1062.41,111.955 1056.41,108.622 1054.5,98C 1055.6,92.0786 1058.93,88.2452 1064.5,86.5 Z M 1063.5,92.5 C 1067.24,91.5985 1069.24,92.9319 1069.5,96.5C 1067.5,96.5 1065.5,96.5 1063.5,96.5C 1063.5,95.1667 1063.5,93.8333 1063.5,92.5 Z"/></g>
<g><path style="opacity:0.941" fill="#000000" d="M 587.5,116.5 C 600.364,116.604 611.364,121.104 620.5,130C 616.321,135.512 611.488,140.346 606,144.5C 594.316,135.284 582.816,135.617 571.5,145.5C 561.911,158.813 562.911,171.313 574.5,183C 586.02,189.48 597.02,188.647 607.5,180.5C 612.652,185.152 617.652,189.985 622.5,195C 610.147,206.759 595.481,211.093 578.5,208C 557.333,203.831 545.499,190.998 543,169.5C 540.764,137.252 555.597,119.585 587.5,116.5 Z"/></g>
<g><path style="opacity:0.941" fill="#000000" d="M 666.5,117.5 C 680.889,115.131 693.056,119.131 703,129.5C 703.498,126.183 703.665,122.85 703.5,119.5C 710.833,119.5 718.167,119.5 725.5,119.5C 725.5,148.5 725.5,177.5 725.5,206.5C 718.468,206.83 711.468,206.497 704.5,205.5C 703.746,202.223 703.246,198.89 703,195.5C 697.883,202.316 691.049,206.483 682.5,208C 655.262,211.393 638.429,199.893 632,173.5C 628.73,156.137 632.896,140.971 644.5,128C 651.131,122.855 658.464,119.355 666.5,117.5 Z M 672.5,137.5 C 694.075,136.647 703.909,146.98 702,168.5C 698.861,180.97 690.861,187.637 678,188.5C 660.167,185.85 652.167,175.516 654,157.5C 656.319,147.146 662.485,140.479 672.5,137.5 Z"/></g>
<g><path style="opacity:0.949" fill="#000000" d="M 981.5,117.5 C 995.303,115.236 1007.14,118.903 1017,128.5C 1018.15,125.607 1018.65,122.607 1018.5,119.5C 1025.5,119.5 1032.5,119.5 1039.5,119.5C 1039.5,148.5 1039.5,177.5 1039.5,206.5C 1032.5,206.5 1025.5,206.5 1018.5,206.5C 1020.26,196.016 1017.92,194.516 1011.5,202C 1000.28,208.608 988.278,210.275 975.5,207C 955.088,199.386 945.088,184.552 945.5,162.5C 945.895,137.974 957.895,122.974 981.5,117.5 Z M 986.5,137.5 C 1009.71,137.214 1019.55,148.548 1016,171.5C 1009.98,185.594 999.477,190.761 984.5,187C 970.95,180.733 965.783,170.233 969,155.5C 971.683,146.318 977.517,140.318 986.5,137.5 Z"/></g>
<g><path style="opacity:0.957" fill="#000000" d="M 441.5,119.5 C 448.833,119.5 456.167,119.5 463.5,119.5C 463.333,138.836 463.5,158.17 464,177.5C 476.5,158.333 489,139.167 501.5,120C 510.16,119.5 518.827,119.334 527.5,119.5C 527.5,148.5 527.5,177.5 527.5,206.5C 520.167,206.5 512.833,206.5 505.5,206.5C 505.667,188.83 505.5,171.164 505,153.5C 493.624,171.086 482.124,188.586 470.5,206C 460.839,206.5 451.172,206.666 441.5,206.5C 441.5,177.5 441.5,148.5 441.5,119.5 Z"/></g>
<g><path style="opacity:0.964" fill="#000000" d="M 741.5,119.5 C 748.833,119.5 756.167,119.5 763.5,119.5C 763.5,130.5 763.5,141.5 763.5,152.5C 777.5,152.5 791.5,152.5 805.5,152.5C 805.5,141.5 805.5,130.5 805.5,119.5C 812.833,119.5 820.167,119.5 827.5,119.5C 827.5,148.5 827.5,177.5 827.5,206.5C 820.167,206.5 812.833,206.5 805.5,206.5C 805.5,194.5 805.5,182.5 805.5,170.5C 791.5,170.5 777.5,170.5 763.5,170.5C 763.5,182.5 763.5,194.5 763.5,206.5C 756.167,206.5 748.833,206.5 741.5,206.5C 741.5,177.5 741.5,148.5 741.5,119.5 Z"/></g>
<g><path style="opacity:0.947" fill="#000000" d="M 863.5,119.5 C 885.167,119.5 906.833,119.5 928.5,119.5C 928.5,142.833 928.5,166.167 928.5,189.5C 932.833,189.5 937.167,189.5 941.5,189.5C 941.5,200.5 941.5,211.5 941.5,222.5C 934.5,222.5 927.5,222.5 920.5,222.5C 920.5,217.167 920.5,211.833 920.5,206.5C 899.5,206.5 878.5,206.5 857.5,206.5C 857.5,211.833 857.5,217.167 857.5,222.5C 850.5,222.5 843.5,222.5 836.5,222.5C 836.5,211.5 836.5,200.5 836.5,189.5C 839.119,189.768 841.619,189.435 844,188.5C 851.355,176.441 856.355,163.441 859,149.5C 861.044,139.573 862.544,129.573 863.5,119.5 Z M 883.5,137.5 C 890.5,137.5 897.5,137.5 904.5,137.5C 904.5,154.833 904.5,172.167 904.5,189.5C 892.482,189.832 880.482,189.499 868.5,188.5C 876.455,172.345 881.455,155.345 883.5,137.5 Z"/></g>
<g><path style="opacity:0.976" fill="#000000" d="M 111.5,129.5 C 113.167,129.5 114.833,129.5 116.5,129.5C 116.5,146.5 116.5,163.5 116.5,180.5C 136.167,180.5 155.833,180.5 175.5,180.5C 175.185,172.58 175.518,164.747 176.5,157C 191.793,154.173 207.127,151.673 222.5,149.5C 222.667,165.17 222.5,180.837 222,196.5C 218.5,210.667 209.667,219.5 195.5,223C 162.5,223.667 129.5,223.667 96.5,223C 82.7752,219.609 73.9419,211.109 70,197.5C 69.3333,177.5 69.3333,157.5 70,137.5C 83.9578,134.982 97.7911,132.315 111.5,129.5 Z"/></g>
</svg>
