<?xml version="1.0" encoding="UTF-8"?>
<!DOCTYPE svg PUBLIC "-//W3C//DTD SVG 1.1//EN" "http://www.w3.org/Graphics/SVG/1.1/DTD/svg11.dtd">
<svg xmlns="http://www.w3.org/2000/svg" version="1.1" width="1076px" height="288px" style="shape-rendering:geometricPrecision; text-rendering:geometricPrecision; image-rendering:optimizeQuality; fill-rule:evenodd; clip-rule:evenodd" xmlns:xlink="http://www.w3.org/1999/xlink">
<g><path style="opacity:0.992" fill="#49b2fc" d="M 90.5,-0.5 C 125.833,-0.5 161.167,-0.5 196.5,-0.5C 235.517,6.61388 263.35,28.2805 280,64.5C 283.429,73.2168 285.763,82.2168 287,91.5C 287.167,108.667 287.333,125.833 287.5,143C 287.621,162.532 287.121,182.032 286,201.5C 273.997,250.007 243.497,278.674 194.5,287.5C 160.5,287.5 126.5,287.5 92.5,287.5C 51.6279,280.804 22.7946,258.47 6,220.5C 3.17941,212.541 1.01274,204.541 -0.5,196.5C -0.5,161.167 -0.5,125.833 -0.5,90.5C 9.5,39.8333 39.8333,9.5 90.5,-0.5 Z"/></g>
<g><path style="opacity:1" fill="#000001" d="M 143.5,50.5 C 147.127,51.2796 150.46,52.7796 153.5,55C 175.833,69.5 198.167,84 220.5,98.5C 221.497,105.468 221.83,112.468 221.5,119.5C 170.833,119.5 120.167,119.5 69.5,119.5C 69.1868,112.245 69.5201,105.079 70.5,98C 95.0086,82.3037 119.342,66.4703 143.5,50.5 Z"/></g>
<g><path style="opacity:0.945" fill="#000000" d="M 354.5,82.5 C 379.5,82.5 404.5,82.5 429.5,82.5C 429.5,89.8333 429.5,97.1667 429.5,104.5C 412.5,104.5 395.5,104.5 378.5,104.5C 378.5,137.833 378.5,171.167 378.5,204.5C 370.5,204.5 362.5,204.5 354.5,204.5C 354.5,163.833 354.5,123.167 354.5,82.5 Z"/></g>
<g><path style="opacity:0.707" fill="#000000" d="M 1075.5,95.5 C 1075.5,96.8333 1075.5,98.1667 1075.5,99.5C 1072.03,111.181 1064.37,115.014 1052.5,111C 1042.62,102.625 1042.29,93.9585 1051.5,85C 1063.36,80.1093 1071.36,83.6093 1075.5,95.5 Z M 1054.5,88.5 C 1063.73,84.2841 1069.4,87.2841 1071.5,97.5C 1071.01,100.485 1069.84,103.152 1068,105.5C 1066.5,103.333 1065,101.167 1063.5,99C 1068.83,95.6667 1068.83,92.3333 1063.5,89C 1060.52,88.502 1057.52,88.3354 1054.5,88.5 Z M 1054.5,88.5 C 1054.5,94.5 1054.5,100.5 1054.5,106.5C 1055.5,106.5 1056.5,106.5 1057.5,106.5C 1057.7,97.7006 1059.7,97.5339 1063.5,106C 1064.5,106.333 1065.5,106.667 1066.5,107C 1056.87,111.017 1050.87,107.85 1048.5,97.5C 1049.15,95.8849 1049.65,94.2182 1050,92.5C 1050.88,90.3645 1052.38,89.0312 1054.5,88.5 Z M 1057.5,91.5 C 1059.5,91.8333 1061.5,92.1667 1063.5,92.5C 1062.97,95.7794 1060.97,97.1128 1057.5,96.5C 1057.5,94.8333 1057.5,93.1667 1057.5,91.5 Z"/></g>
<g><path style="opacity:0.942" fill="#000000" d="M 574.5,116.5 C 581.841,116.334 589.174,116.5 596.5,117C 604.652,118.903 611.319,123.07 616.5,129.5C 612.167,134.5 607.5,139.167 602.5,143.5C 588.411,133.419 575.911,135.086 565,148.5C 558.828,162.31 561.661,173.81 573.5,183C 584.607,187.461 594.774,185.961 604,178.5C 608.855,183.355 613.688,188.188 618.5,193C 609.804,202.673 598.804,207.507 585.5,207.5C 552.969,204.799 537.802,187.132 540,154.5C 543.002,134.003 554.502,121.336 574.5,116.5 Z"/></g>
<g><path style="opacity:0.94" fill="#000000" d="M 663.5,116.5 C 675.738,114.809 686.738,117.642 696.5,125C 697.211,126.255 698.044,127.421 699,128.5C 699.498,125.183 699.665,121.85 699.5,118.5C 706.833,118.5 714.167,118.5 721.5,118.5C 721.5,147.167 721.5,175.833 721.5,204.5C 714.468,204.83 707.468,204.497 700.5,203.5C 699.756,200.557 699.256,197.557 699,194.5C 688.388,205.592 675.555,209.425 660.5,206C 643.333,202.167 632.833,191.667 629,174.5C 624.362,154.528 629.529,137.694 644.5,124C 650.509,120.316 656.842,117.816 663.5,116.5 Z M 668.5,136.5 C 690.125,135.625 699.959,145.959 698,167.5C 693.612,182.12 683.779,188.287 668.5,186C 656.4,182.39 650.066,174.224 649.5,161.5C 650.275,148.749 656.608,140.415 668.5,136.5 Z"/></g>
<g><path style="opacity:0.952" fill="#000000" d="M 975.5,116.5 C 989.889,114.131 1002.06,118.131 1012,128.5C 1012.5,125.183 1012.67,121.85 1012.5,118.5C 1019.5,118.5 1026.5,118.5 1033.5,118.5C 1033.5,147.167 1033.5,175.833 1033.5,204.5C 1026.5,204.5 1019.5,204.5 1012.5,204.5C 1012.67,200.818 1012.5,197.152 1012,193.5C 1005.17,202.5 996.001,207.167 984.5,207.5C 951.443,204.117 936.943,185.783 941,152.5C 944.262,132.408 955.762,120.408 975.5,116.5 Z M 980.5,136.5 C 999.222,134.67 1009.56,143.003 1011.5,161.5C 1009.82,179.842 999.818,188.009 981.5,186C 969.386,182.379 963.053,174.212 962.5,161.5C 963.186,149.173 969.186,140.839 980.5,136.5 Z"/></g>
<g><path style="opacity:0.959" fill="#000000" d="M 439.5,118.5 C 446.833,118.5 454.167,118.5 461.5,118.5C 461.333,137.17 461.5,155.836 462,174.5C 474.167,156.167 486.333,137.833 498.5,119.5C 507.141,118.502 515.808,118.169 524.5,118.5C 524.5,147.167 524.5,175.833 524.5,204.5C 517.167,204.5 509.833,204.5 502.5,204.5C 502.667,187.163 502.5,169.83 502,152.5C 490.833,169.667 479.667,186.833 468.5,204C 458.839,204.5 449.172,204.666 439.5,204.5C 439.5,175.833 439.5,147.167 439.5,118.5 Z"/></g>
<g><path style="opacity:0.95" fill="#000000" d="M 737.5,118.5 C 744.833,118.5 752.167,118.5 759.5,118.5C 759.5,129.167 759.5,139.833 759.5,150.5C 773.5,150.5 787.5,150.5 801.5,150.5C 801.5,139.833 801.5,129.167 801.5,118.5C 808.833,118.5 816.167,118.5 823.5,118.5C 823.5,147.167 823.5,175.833 823.5,204.5C 816.167,204.5 808.833,204.5 801.5,204.5C 801.5,192.833 801.5,181.167 801.5,169.5C 787.5,169.5 773.5,169.5 759.5,169.5C 759.5,181.167 759.5,192.833 759.5,204.5C 752.167,204.5 744.833,204.5 737.5,204.5C 737.5,175.833 737.5,147.167 737.5,118.5 Z"/></g>
<g><path style="opacity:0.945" fill="#000000" d="M 858.5,118.5 C 880.167,118.5 901.833,118.5 923.5,118.5C 923.5,141.5 923.5,164.5 923.5,187.5C 927.5,187.5 931.5,187.5 935.5,187.5C 935.5,198.5 935.5,209.5 935.5,220.5C 928.5,220.5 921.5,220.5 914.5,220.5C 914.5,215.167 914.5,209.833 914.5,204.5C 893.833,204.5 873.167,204.5 852.5,204.5C 852.5,209.833 852.5,215.167 852.5,220.5C 845.5,220.5 838.5,220.5 831.5,220.5C 831.5,209.5 831.5,198.5 831.5,187.5C 834.247,187.813 836.914,187.48 839.5,186.5C 846.591,174.732 851.424,162.065 854,148.5C 856.107,138.584 857.607,128.584 858.5,118.5 Z M 878.5,136.5 C 885.5,136.5 892.5,136.5 899.5,136.5C 899.5,153.5 899.5,170.5 899.5,187.5C 887.495,187.667 875.495,187.5 863.5,187C 871.231,170.974 876.231,154.141 878.5,136.5 Z"/></g>
<g><path style="opacity:1" fill="#fdfefe" d="M 111.5,129.5 C 112.5,129.5 113.5,129.5 114.5,129.5C 114.17,146.342 114.503,163.008 115.5,179.5C 135.5,179.5 155.5,179.5 175.5,179.5C 175.5,171.5 175.5,163.5 175.5,155.5C 190.825,153.17 206.158,150.836 221.5,148.5C 221.922,164.549 221.422,180.549 220,196.5C 215.43,210.403 205.93,218.57 191.5,221C 159.5,221.667 127.5,221.667 95.5,221C 82.307,217.14 73.807,208.64 70,195.5C 69.167,175.825 69.3336,156.158 70.5,136.5C 84.1379,134.007 97.8045,131.674 111.5,129.5 Z"/></g>
<g><path style="opacity:1" fill="#c4e5fe" d="M 111.5,129.5 C 112.568,128.566 113.901,128.232 115.5,128.5C 115.5,145.5 115.5,162.5 115.5,179.5C 114.503,163.008 114.17,146.342 114.5,129.5C 113.5,129.5 112.5,129.5 111.5,129.5 Z"/></g>
</svg>
