<?xml version="1.0" encoding="UTF-8"?>
<!DOCTYPE svg PUBLIC "-//W3C//DTD SVG 1.1//EN" "http://www.w3.org/Graphics/SVG/1.1/DTD/svg11.dtd">
<svg xmlns="http://www.w3.org/2000/svg" version="1.1" width="1073px" height="287px" style="shape-rendering:geometricPrecision; text-rendering:geometricPrecision; image-rendering:optimizeQuality; fill-rule:evenodd; clip-rule:evenodd" xmlns:xlink="http://www.w3.org/1999/xlink">
<g><path style="opacity:0.992" fill="#f3f3f3" d="M 89.5,-0.5 C 125.167,-0.5 160.833,-0.5 196.5,-0.5C 245.732,9.5654 275.566,39.2321 286,88.5C 287.092,106.642 287.592,124.809 287.5,143C 287.592,161.191 287.092,179.358 286,197.5C 275.566,246.768 245.732,276.435 196.5,286.5C 160.833,286.5 125.167,286.5 89.5,286.5C 39.8333,276.167 9.83333,246.167 -0.5,196.5C -0.5,160.833 -0.5,125.167 -0.5,89.5C 9.83333,39.8333 39.8333,9.83333 89.5,-0.5 Z"/></g>
<g><path style="opacity:1" fill="#000000" d="M 144.5,49.5 C 169.724,65.6983 194.89,82.0317 220,98.5C 220.5,105.492 220.666,112.492 220.5,119.5C 170.167,119.5 119.833,119.5 69.5,119.5C 69.3337,112.492 69.5004,105.492 70,98.5C 94.9841,82.2673 119.817,65.9339 144.5,49.5 Z"/></g>
<g><path style="opacity:0.948" fill="#000000" d="M 353.5,82.5 C 378.5,82.5 403.5,82.5 428.5,82.5C 428.5,89.8333 428.5,97.1667 428.5,104.5C 411.5,104.5 394.5,104.5 377.5,104.5C 377.5,137.5 377.5,170.5 377.5,203.5C 369.5,203.5 361.5,203.5 353.5,203.5C 353.5,163.167 353.5,122.833 353.5,82.5 Z"/></g>
<g><path style="opacity:0.679" fill="#000000" d="M 1072.5,91.5 C 1072.5,95.5 1072.5,99.5 1072.5,103.5C 1064.12,114.577 1054.95,115.243 1045,105.5C 1040.56,95.157 1043.39,87.657 1053.5,83C 1062.12,81.136 1068.45,83.9694 1072.5,91.5 Z M 1051.5,88.5 C 1060.94,83.8864 1066.94,86.8864 1069.5,97.5C 1068.93,100.452 1067.77,103.119 1066,105.5C 1064.5,103.333 1063,101.167 1061.5,99C 1066.33,96.1625 1066.66,92.8292 1062.5,89C 1058.85,88.5014 1055.18,88.3347 1051.5,88.5 Z M 1051.5,88.5 C 1051.67,94.5092 1051.5,100.509 1051,106.5C 1044.91,100.235 1045.08,94.2354 1051.5,88.5 Z M 1055.5,91.5 C 1057.83,91.2471 1059.83,91.9137 1061.5,93.5C 1059.98,95.2825 1057.98,95.9492 1055.5,95.5C 1055.5,94.1667 1055.5,92.8333 1055.5,91.5 Z M 1055.5,98.5 C 1058.26,101.131 1060.93,103.965 1063.5,107C 1059.83,109 1056.17,109 1052.5,107C 1053.45,106.517 1054.45,106.351 1055.5,106.5C 1055.5,103.833 1055.5,101.167 1055.5,98.5 Z"/></g>
<g><path style="opacity:0.936" fill="#000000" d="M 578.5,115.5 C 592.952,114.093 605.285,118.427 615.5,128.5C 610.805,133.526 606.139,138.526 601.5,143.5C 588.386,133.384 576.219,134.384 565,146.5C 558.263,158.53 559.429,169.697 568.5,180C 580.154,187.577 591.487,187.077 602.5,178.5C 608.668,182.496 613.501,187.496 617,193.5C 603.663,205.572 588.163,209.406 570.5,205C 551.787,199.952 541.287,187.785 539,168.5C 536.168,138.54 549.335,120.874 578.5,115.5 Z"/></g>
<g><path style="opacity:0.953" fill="#000000" d="M 660.5,116.5 C 668.238,116.144 675.905,116.644 683.5,118C 688.929,119.802 693.429,122.969 697,127.5C 698.289,124.649 698.789,121.649 698.5,118.5C 705.5,118.5 712.5,118.5 719.5,118.5C 719.5,146.833 719.5,175.167 719.5,203.5C 712.5,203.5 705.5,203.5 698.5,203.5C 698.817,200.428 698.484,197.428 697.5,194.5C 685.91,205.648 672.244,209.148 656.5,205C 636.016,197.901 626.016,183.401 626.5,161.5C 626.044,137.351 637.378,122.351 660.5,116.5 Z M 670.5,135.5 C 691.344,137.508 699.844,148.841 696,169.5C 689.363,184.565 678.196,189.398 662.5,184C 649.913,176.533 645.747,165.699 650,151.5C 654.036,142.418 660.87,137.085 670.5,135.5 Z"/></g>
<g><path style="opacity:0.956" fill="#000000" d="M 972.5,116.5 C 986.994,113.559 999.327,117.226 1009.5,127.5C 1010.48,124.572 1010.82,121.572 1010.5,118.5C 1017.5,118.5 1024.5,118.5 1031.5,118.5C 1031.5,146.833 1031.5,175.167 1031.5,203.5C 1024.5,203.5 1017.5,203.5 1010.5,203.5C 1010.67,200.15 1010.5,196.817 1010,193.5C 998.559,205.488 984.726,209.321 968.5,205C 947.89,197.833 937.89,183.166 938.5,161C 938.685,137.399 950.018,122.566 972.5,116.5 Z M 982.5,135.5 C 999.352,136.019 1008.35,144.685 1009.5,161.5C 1006.29,182.107 994.624,189.607 974.5,184C 962.513,176.721 958.346,166.221 962,152.5C 965.5,142.684 972.333,137.018 982.5,135.5 Z"/></g>
<g><path style="opacity:0.955" fill="#000000" d="M 438.5,117.5 C 445.833,117.5 453.167,117.5 460.5,117.5C 460.333,136.503 460.5,155.503 461,174.5C 473.376,155.581 485.876,136.747 498.5,118C 506.827,117.5 515.16,117.334 523.5,117.5C 523.5,146.167 523.5,174.833 523.5,203.5C 516.167,203.5 508.833,203.5 501.5,203.5C 501.667,186.497 501.5,169.497 501,152.5C 489.957,169.419 478.791,186.253 467.5,203C 457.839,203.5 448.172,203.666 438.5,203.5C 438.5,174.833 438.5,146.167 438.5,117.5 Z"/></g>
<g><path style="opacity:0.954" fill="#000000" d="M 735.5,117.5 C 742.833,117.5 750.167,117.5 757.5,117.5C 757.5,128.5 757.5,139.5 757.5,150.5C 771.5,150.5 785.5,150.5 799.5,150.5C 799.5,139.5 799.5,128.5 799.5,117.5C 806.833,117.5 814.167,117.5 821.5,117.5C 821.5,146.167 821.5,174.833 821.5,203.5C 814.167,203.5 806.833,203.5 799.5,203.5C 799.5,191.833 799.5,180.167 799.5,168.5C 785.5,168.5 771.5,168.5 757.5,168.5C 757.5,180.167 757.5,191.833 757.5,203.5C 750.167,203.5 742.833,203.5 735.5,203.5C 735.5,174.833 735.5,146.167 735.5,117.5 Z"/></g>
<g><path style="opacity:0.958" fill="#000000" d="M 856.5,117.5 C 878.167,117.5 899.833,117.5 921.5,117.5C 921.5,140.833 921.5,164.167 921.5,187.5C 925.5,187.5 929.5,187.5 933.5,187.5C 933.5,198.167 933.5,208.833 933.5,219.5C 926.833,219.5 920.167,219.5 913.5,219.5C 913.5,214.167 913.5,208.833 913.5,203.5C 892.5,203.5 871.5,203.5 850.5,203.5C 850.5,208.833 850.5,214.167 850.5,219.5C 843.833,219.5 837.167,219.5 830.5,219.5C 830.5,208.833 830.5,198.167 830.5,187.5C 832.924,187.808 835.257,187.474 837.5,186.5C 849.28,165.052 855.613,142.052 856.5,117.5 Z M 876.5,135.5 C 883.5,135.5 890.5,135.5 897.5,135.5C 897.5,152.833 897.5,170.167 897.5,187.5C 885.495,187.667 873.495,187.5 861.5,187C 869.68,170.784 874.68,153.618 876.5,135.5 Z"/></g>
<g><path style="opacity:1" fill="#4ab3fc" d="M 114.5,128.5 C 114.5,145.5 114.5,162.5 114.5,179.5C 134.833,179.5 155.167,179.5 175.5,179.5C 175.5,171.5 175.5,163.5 175.5,155.5C 190.409,152.626 205.409,150.293 220.5,148.5C 220.667,163.837 220.5,179.17 220,194.5C 216.058,208.109 207.225,216.609 193.5,220C 160.5,220.667 127.5,220.667 94.5,220C 80.373,215.606 71.873,206.106 69,191.5C 68.3333,173.167 68.3333,154.833 69,136.5C 84.0558,133.352 99.2224,130.685 114.5,128.5 Z"/></g>
<g><path style="opacity:1" fill="#b1daf7" d="M 114.5,128.5 C 115.497,144.992 115.83,161.658 115.5,178.5C 135.167,178.5 154.833,178.5 174.5,178.5C 174.175,170.648 174.508,162.982 175.5,155.5C 175.5,163.5 175.5,171.5 175.5,179.5C 155.167,179.5 134.833,179.5 114.5,179.5C 114.5,162.5 114.5,145.5 114.5,128.5 Z"/></g>
</svg>
