<?xml version="1.0" encoding="UTF-8"?>
<!DOCTYPE svg PUBLIC "-//W3C//DTD SVG 1.1//EN" "http://www.w3.org/Graphics/SVG/1.1/DTD/svg11.dtd">
<svg xmlns="http://www.w3.org/2000/svg" version="1.1" width="1091px" height="293px" style="shape-rendering:geometricPrecision; text-rendering:geometricPrecision; image-rendering:optimizeQuality; fill-rule:evenodd; clip-rule:evenodd" xmlns:xlink="http://www.w3.org/1999/xlink">
<g><path style="opacity:0.992" fill="#49b2fc" d="M 91.5,-0.5 C 127.5,-0.5 163.5,-0.5 199.5,-0.5C 250.94,9.77414 281.44,40.7741 291,92.5C 291.667,128.167 291.667,163.833 291,199.5C 282.946,245.221 256.779,275.054 212.5,289C 206.735,290.386 201.069,291.552 195.5,292.5C 162.167,292.5 128.833,292.5 95.5,292.5C 53.9578,286.808 24.4578,264.808 7,226.5C 3.69181,217.587 1.19181,208.587 -0.5,199.5C -0.5,163.5 -0.5,127.5 -0.5,91.5C 9.83724,40.4961 40.5039,9.82943 91.5,-0.5 Z"/></g>
<g><path style="opacity:1" fill="#000001" d="M 145.5,51.5 C 146.873,51.3433 148.207,51.51 149.5,52C 174.167,68 198.833,84 223.5,100C 224.48,107.079 224.813,114.245 224.5,121.5C 173.167,121.5 121.833,121.5 70.5,121.5C 70.3337,114.492 70.5004,107.492 71,100.5C 95.9841,84.2673 120.817,67.9339 145.5,51.5 Z"/></g>
<g><path style="opacity:0.965" fill="#fefffe" d="M 359.5,84.5 C 384.833,84.5 410.167,84.5 435.5,84.5C 435.5,91.8333 435.5,99.1667 435.5,106.5C 418.167,106.5 400.833,106.5 383.5,106.5C 383.5,140.167 383.5,173.833 383.5,207.5C 375.5,207.5 367.5,207.5 359.5,207.5C 359.5,166.5 359.5,125.5 359.5,84.5 Z"/></g>
<g><path style="opacity:0.702" fill="#fefffe" d="M 1090.5,93.5 C 1090.5,97.1667 1090.5,100.833 1090.5,104.5C 1084.92,114.303 1076.92,116.803 1066.5,112C 1059.34,104.543 1058.67,96.5432 1064.5,88C 1071.83,83.3333 1079.17,83.3333 1086.5,88C 1087.7,90.0153 1089.03,91.8487 1090.5,93.5 Z M 1069.5,108.5 C 1064.81,105.012 1063.31,100.345 1065,94.5C 1070.26,86.5684 1076.59,85.5684 1084,91.5C 1086.9,95.9367 1087.23,100.603 1085,105.5C 1084.28,106.451 1083.45,106.617 1082.5,106C 1079.13,103.519 1078.96,101.019 1082,98.5C 1082.94,95.6529 1082.44,93.1529 1080.5,91C 1076.85,90.5014 1073.18,90.3347 1069.5,90.5C 1069.5,96.5 1069.5,102.5 1069.5,108.5 Z M 1072.5,93.5 C 1076.24,92.5985 1078.24,93.9319 1078.5,97.5C 1076.5,97.5 1074.5,97.5 1072.5,97.5C 1072.5,96.1667 1072.5,94.8333 1072.5,93.5 Z M 1069.5,108.5 C 1070.5,108.5 1071.5,108.5 1072.5,108.5C 1072.19,105.753 1072.52,103.086 1073.5,100.5C 1075.83,103.661 1078.5,106.495 1081.5,109C 1077.28,111.13 1073.28,110.964 1069.5,108.5 Z"/></g>
<g><path style="opacity:0.941" fill="#fefffe" d="M 592.5,117.5 C 605.748,117.13 616.748,121.797 625.5,131.5C 621.137,136.697 616.303,141.364 611,145.5C 597.509,136.409 585.176,137.742 574,149.5C 567.408,162.106 568.908,173.606 578.5,184C 590.412,191.213 601.912,190.38 613,181.5C 617.667,186.167 622.333,190.833 627,195.5C 627.667,196.167 627.667,196.833 627,197.5C 611.183,211.075 593.35,214.241 573.5,207C 558.551,200.369 550.051,188.869 548,172.5C 544.769,139.254 559.602,120.921 592.5,117.5 Z"/></g>
<g><path style="opacity:0.948" fill="#fefffe" d="M 672.5,118.5 C 683.116,117.208 693.116,119.041 702.5,124C 705.237,125.614 707.403,127.781 709,130.5C 709.498,127.183 709.665,123.85 709.5,120.5C 716.833,120.5 724.167,120.5 731.5,120.5C 731.5,149.5 731.5,178.5 731.5,207.5C 724.5,207.5 717.5,207.5 710.5,207.5C 710.11,204.161 709.61,200.827 709,197.5C 701.528,206.446 691.861,210.78 680,210.5C 651.72,208.383 637.22,193.049 636.5,164.5C 636.604,139.54 648.604,124.207 672.5,118.5 Z M 679.5,138.5 C 701.051,138.879 710.551,149.879 708,171.5C 703.009,186.128 692.842,191.961 677.5,189C 662.997,183.506 657.164,173.006 660,157.5C 663.121,147.544 669.621,141.21 679.5,138.5 Z"/></g>
<g><path style="opacity:0.955" fill="#fefffe" d="M 989.5,118.5 C 1003.65,116.072 1015.81,119.739 1026,129.5C 1027.15,126.607 1027.65,123.607 1027.5,120.5C 1034.5,120.5 1041.5,120.5 1048.5,120.5C 1048.5,149.5 1048.5,178.5 1048.5,207.5C 1041.5,207.5 1034.5,207.5 1027.5,207.5C 1027.89,204.278 1027.39,201.278 1026,198.5C 1013.23,210.701 998.395,213.867 981.5,208C 962.766,199.724 953.766,185.224 954.5,164.5C 954.185,139.839 965.852,124.505 989.5,118.5 Z M 996.5,138.5 C 1014.62,137.453 1024.62,145.953 1026.5,164C 1022.51,187.165 1009.51,194.498 987.5,186C 975.54,175.266 973.373,162.766 981,148.5C 985.205,143.492 990.372,140.159 996.5,138.5 Z"/></g>
<g><path style="opacity:0.966" fill="#fefffe" d="M 445.5,120.5 C 452.833,120.5 460.167,120.5 467.5,120.5C 467.333,139.836 467.5,159.17 468,178.5C 480.461,159.075 493.295,139.908 506.5,121C 515.16,120.5 523.827,120.334 532.5,120.5C 532.5,149.5 532.5,178.5 532.5,207.5C 525.167,207.5 517.833,207.5 510.5,207.5C 510.667,189.83 510.5,172.164 510,154.5C 498.5,172 487,189.5 475.5,207C 465.506,207.5 455.506,207.666 445.5,207.5C 445.5,178.5 445.5,149.5 445.5,120.5 Z"/></g>
<g><path style="opacity:0.951" fill="#fefffe" d="M 748.5,120.5 C 755.833,120.5 763.167,120.5 770.5,120.5C 770.5,131.5 770.5,142.5 770.5,153.5C 784.5,153.5 798.5,153.5 812.5,153.5C 812.5,142.5 812.5,131.5 812.5,120.5C 820.167,120.5 827.833,120.5 835.5,120.5C 835.5,149.5 835.5,178.5 835.5,207.5C 827.833,207.5 820.167,207.5 812.5,207.5C 812.5,195.833 812.5,184.167 812.5,172.5C 798.5,172.5 784.5,172.5 770.5,172.5C 770.5,184.167 770.5,195.833 770.5,207.5C 763.167,207.5 755.833,207.5 748.5,207.5C 748.5,178.5 748.5,149.5 748.5,120.5 Z"/></g>
<g><path style="opacity:0.947" fill="#fefffe" d="M 871.5,120.5 C 893.167,120.5 914.833,120.5 936.5,120.5C 936.5,143.833 936.5,167.167 936.5,190.5C 940.833,190.5 945.167,190.5 949.5,190.5C 949.5,201.833 949.5,213.167 949.5,224.5C 942.5,224.5 935.5,224.5 928.5,224.5C 928.5,218.833 928.5,213.167 928.5,207.5C 907.5,207.5 886.5,207.5 865.5,207.5C 865.5,213.167 865.5,218.833 865.5,224.5C 858.167,224.5 850.833,224.5 843.5,224.5C 843.5,213.167 843.5,201.833 843.5,190.5C 846.187,190.664 848.854,190.497 851.5,190C 863.211,168.329 869.878,145.162 871.5,120.5 Z M 890.5,138.5 C 897.833,138.5 905.167,138.5 912.5,138.5C 912.5,155.833 912.5,173.167 912.5,190.5C 900.482,190.832 888.482,190.499 876.5,189.5C 884.44,173.409 889.106,156.409 890.5,138.5 Z"/></g>
<g><path style="opacity:1" fill="#fdfefe" d="M 114.5,131.5 C 116.162,148.309 117.162,165.309 117.5,182.5C 137.5,182.5 157.5,182.5 177.5,182.5C 177.5,174.5 177.5,166.5 177.5,158.5C 193.159,156.057 208.825,153.723 224.5,151.5C 224.922,167.549 224.422,183.549 223,199.5C 218.859,213.973 209.359,222.473 194.5,225C 162.5,225.667 130.5,225.667 98.5,225C 84.4142,221.247 75.2476,212.414 71,198.5C 70.5,178.503 70.3334,158.503 70.5,138.5C 85.1272,135.951 99.7939,133.618 114.5,131.5 Z"/></g>
<g><path style="opacity:1" fill="#8dcffd" d="M 114.5,131.5 C 115.209,130.596 116.209,130.263 117.5,130.5C 117.5,147.833 117.5,165.167 117.5,182.5C 117.162,165.309 116.162,148.309 114.5,131.5 Z"/></g>
</svg>
