<?xml version="1.0" encoding="UTF-8" standalone="no"?>
<svg
   version="1.0"
   width="12.467074mm"
   height="12.467074mm"
   id="svg65"
   sodipodi:docname="favicon.svg"
   inkscape:version="1.4-beta3 (01c8a1c, 2024-08-28, custom)"
   inkscape:export-filename="favicon-96.png"
   inkscape:export-xdpi="195.59"
   inkscape:export-ydpi="195.59"
   xmlns:inkscape="http://www.inkscape.org/namespaces/inkscape"
   xmlns:sodipodi="http://sodipodi.sourceforge.net/DTD/sodipodi-0.dtd"
   xmlns="http://www.w3.org/2000/svg"
   xmlns:svg="http://www.w3.org/2000/svg">
  <sodipodi:namedview
     id="namedview65"
     pagecolor="#ffffff"
     bordercolor="#666666"
     borderopacity="1.0"
     inkscape:showpageshadow="false"
     inkscape:pageopacity="0.0"
     inkscape:pagecheckerboard="false"
     inkscape:deskcolor="#d1d1d1"
     inkscape:document-units="mm"
     inkscape:zoom="7.387827"
     inkscape:cx="59.354395"
     inkscape:cy="32.418193"
     inkscape:window-width="2560"
     inkscape:window-height="1310"
     inkscape:window-x="-9"
     inkscape:window-y="-9"
     inkscape:window-maximized="1"
     inkscape:current-layer="svg65"
     showborder="false" />
  <defs
     id="defs2">
    <clipPath
       clipPathUnits="userSpaceOnUse"
       id="clipEmfPath1">
      <path
         d="M -67.919497,-143.27894 H 526.9561 V 191.35858 H -67.919497 Z"
         id="path1" />
    </clipPath>
    <clipPath
       clipPathUnits="userSpaceOnUse"
       id="clipEmfPath2">
      <path
         d="M -132.31902,-236.07825 H 795.8341 v 522.07613 h -928.15312 z"
         id="path2" />
    </clipPath>
    <pattern
       id="EMFhbasepattern"
       patternUnits="userSpaceOnUse"
       width="6"
       height="6"
       x="0"
       y="0" />
  </defs>
  <path
     style="fill:#49b3fd;fill-opacity:1;fill-rule:nonzero;stroke:none"
     clip-path="url(#clipEmfPath1)"
     d="M 29.839779,47.119651 H 17.279872 C 7.7599425,47.119651 0,39.359708 0,29.839779 V 17.279872 C 0,7.7599425 7.7599425,0 17.279872,0 h 12.559907 c 9.519929,0 17.279872,7.7599425 17.279872,17.279872 v 12.559907 c 0,9.519929 -7.759943,17.279872 -17.279872,17.279872 z"
     id="path3" />
  <path
     style="fill:#000000;fill-opacity:1;fill-rule:nonzero;stroke:none;stroke-width:0.859687"
     clip-path="url(#clipEmfPath1)"
     d="m 11.439915,16.23988 v 3.439974 h 24.879816 l -0.08,-3.439974 -12.399909,-7.999941 z"
     id="path55"
     transform="matrix(1.163214,0,0,1.163214,-3.8975211,-3.6363807)" />
  <path
     style="fill:#ffffff;fill-opacity:1;fill-rule:nonzero;stroke:none;stroke-width:0.859687"
     clip-path="url(#clipEmfPath1)"
     d="m 36.239732,29.519781 v 0 -5.119962 l -7.439945,1.279991 v 3.839971 H 18.95986 v -8.319938 l -7.519945,1.27999 v 8.319939 c 0,3.039977 2.479982,5.519959 5.519959,5.519959 h 13.759898 c 3.039978,0 5.51996,-2.479982 5.51996,-5.519959 z"
     id="path56"
     transform="matrix(1.163214,0,0,1.163214,-3.8975211,-3.6363807)" />
</svg>
